<?xml version="1.0" standalone="no"?>
<!DOCTYPE svg PUBLIC "-//W3C//DTD SVG 20010904//EN"
 "http://www.w3.org/TR/2001/REC-SVG-20010904/DTD/svg10.dtd">
<svg version="1.0" xmlns="http://www.w3.org/2000/svg"
 width="704.000000pt" height="704.000000pt" viewBox="0 0 704.000000 704.000000"
 preserveAspectRatio="xMidYMid meet">
<metadata>
Created by potrace 1.14, written by Peter Selinger 2001-2017
</metadata>
<g transform="translate(0.000000,704.000000) scale(0.100000,-0.100000)"
fill="#000000" stroke="none">
<path d="M3319 7002 c-43 -47 -146 -133 -232 -194 -45 -32 -87 -61 -92 -66
-25 -21 -243 -146 -332 -191 -211 -105 -484 -205 -739 -271 -84 -22 -165 -42
-180 -44 -16 -3 -54 -10 -84 -16 -30 -6 -71 -13 -90 -16 -19 -3 -60 -9 -90
-14 -177 -30 -433 -48 -696 -49 l-110 -1 -12 -62 c-7 -35 -14 -74 -16 -88 -2
-14 -9 -52 -14 -85 -22 -125 -56 -394 -67 -535 -3 -36 -7 -85 -10 -110 -27
-278 -27 -1081 0 -1295 2 -16 7 -61 10 -100 3 -38 8 -81 10 -95 2 -14 7 -52
10 -85 3 -33 8 -67 10 -75 2 -8 6 -37 9 -63 12 -105 48 -301 91 -487 40 -177
96 -379 140 -503 l24 -68 -45 -20 c-25 -10 -49 -19 -54 -19 -23 0 -162 -104
-208 -156 -78 -87 -106 -151 -106 -244 0 -66 3 -81 30 -125 26 -43 243 -407
485 -816 67 -113 159 -217 180 -204 5 4 9 1 9 -5 0 -6 5 -8 10 -5 6 3 10 2 10
-3 0 -20 82 -47 195 -66 75 -13 255 -13 323 -1 16 2 64 12 108 20 43 8 82 15
87 15 4 0 33 -24 65 -53 99 -89 124 -110 227 -188 287 -218 634 -411 960 -535
50 -19 99 -38 110 -43 58 -24 89 -30 96 -20 4 8 8 7 11 -2 11 -32 552 202 778
338 143 85 360 229 380 252 3 4 23 19 45 35 112 83 312 267 440 406 240 261
443 557 611 891 l65 129 77 -7 c120 -11 310 -6 391 11 227 49 418 179 457 312
8 29 13 62 10 71 -2 10 -7 56 -11 103 -3 47 -8 101 -10 120 -7 58 -14 132 -20
195 -3 33 -14 150 -25 260 -10 110 -22 234 -25 275 -9 100 -35 149 -123 231
-33 32 -121 80 -194 107 -40 15 -73 32 -73 37 3 41 18 213 20 234 24 199 24
953 0 1191 -2 19 -6 72 -10 118 -3 46 -8 98 -10 115 -2 18 -6 61 -10 97 -3 36
-8 72 -10 80 -2 8 -7 42 -10 75 -11 99 -15 125 -36 245 -11 63 -23 132 -26
153 -3 21 -11 40 -17 42 -6 2 -110 6 -231 9 -121 4 -240 8 -265 10 -113 11
-285 32 -345 42 -341 58 -595 126 -875 236 -204 81 -550 267 -681 368 -107 82
-188 148 -214 174 -58 58 -59 59 -86 28z"/>
</g>
</svg>
